<svg width="3702" height="174" viewBox="0 0 3702 174" fill="none" xmlns="http://www.w3.org/2000/svg">
<path d="M25 102.621V79.6092L134.304 29.112V57.4767L56.6406 90.7953L57.5195 89.2772V92.9526L56.6406 91.4345L134.304 124.753V153.118L25 102.621Z" fill="#262625"/>
<path d="M192.412 171.415H160.771L218.379 7.77858H254.974L312.662 171.415H281.021L237.316 41.3368H236.037L192.412 171.415ZM193.45 107.255H279.743V131.065H193.45V107.255Z" fill="#262625"/>
<path d="M448.273 102.621L338.969 153.118V124.753L416.632 91.4345L415.753 92.9526V89.2772L416.632 90.7953L338.969 57.4767V29.112L448.273 79.6092V102.621Z" fill="#262625"/>
<path d="M485.367 171.415V7.77858H590.196V32.6277H515.01V77.0524H583.005V101.901H515.01V171.415H485.367Z" fill="#262625"/>
<path d="M614.046 171.415V48.6877H642.091V69.1422H643.37C645.607 62.0577 649.442 56.5978 654.876 52.7626C660.362 48.8741 666.621 46.9299 673.652 46.9299C675.25 46.9299 677.035 47.0098 679.006 47.1696C681.03 47.2761 682.708 47.4625 684.039 47.7289V74.3358C682.814 73.9096 680.87 73.5368 678.207 73.2171C675.596 72.8443 673.066 72.6578 670.616 72.6578C665.342 72.6578 660.602 73.8031 656.394 76.0936C652.239 78.3308 648.963 81.4469 646.566 85.4419C644.169 89.437 642.97 94.0446 642.97 99.2647V171.415H614.046Z" fill="#262625"/>
<path d="M751.615 173.812C739.63 173.812 729.243 171.175 720.454 165.902C711.665 160.628 704.847 153.251 699.999 143.769C695.205 134.288 692.808 123.208 692.808 110.531C692.808 97.8532 695.205 86.747 699.999 77.2122C704.847 67.6774 711.665 60.2733 720.454 54.9998C729.243 49.7264 739.63 47.0897 751.615 47.0897C763.6 47.0897 773.987 49.7264 782.776 54.9998C791.565 60.2733 798.357 67.6774 803.151 77.2122C807.998 86.747 810.422 97.8532 810.422 110.531C810.422 123.208 807.998 134.288 803.151 143.769C798.357 153.251 791.565 160.628 782.776 165.902C773.987 171.175 763.6 173.812 751.615 173.812ZM751.775 150.641C758.273 150.641 763.707 148.856 768.074 145.287C772.442 141.665 775.692 136.818 777.822 130.746C780.006 124.673 781.098 117.908 781.098 110.451C781.098 102.94 780.006 96.1486 777.822 90.0762C775.692 83.9505 772.442 79.0765 768.074 75.4544C763.707 71.8322 758.273 70.0211 751.775 70.0211C745.116 70.0211 739.577 71.8322 735.155 75.4544C730.788 79.0765 727.512 83.9505 725.328 90.0762C723.197 96.1486 722.132 102.94 722.132 110.451C722.132 117.908 723.197 124.673 725.328 130.746C727.512 136.818 730.788 141.665 735.155 145.287C739.577 148.856 745.116 150.641 751.775 150.641Z" fill="#262625"/>
<path d="M863.775 99.5044V171.415H834.851V48.6877H862.497V69.5417H863.935C866.758 62.6703 871.259 57.2104 877.438 53.1621C883.671 49.1138 891.368 47.0897 900.53 47.0897C908.999 47.0897 916.376 48.9007 922.662 52.5229C929.001 56.1451 933.901 61.3919 937.364 68.2633C940.879 75.1348 942.61 83.4711 942.557 93.2722V171.415H913.633V97.7466C913.633 89.5435 911.503 83.1248 907.241 78.4906C903.033 73.8564 897.2 71.5392 889.743 71.5392C884.683 71.5392 880.182 72.6578 876.24 74.8951C872.351 77.079 869.288 80.2484 867.051 84.4032C864.867 88.5581 863.775 93.5918 863.775 99.5044Z" fill="#262625"/>
<path d="M1033.12 48.6877V71.0598H962.572V48.6877H1033.12ZM979.99 19.2843H1008.91V134.501C1008.91 138.389 1009.5 141.372 1010.67 143.45C1011.9 145.474 1013.5 146.859 1015.47 147.605C1017.44 148.35 1019.62 148.723 1022.02 148.723C1023.83 148.723 1025.48 148.59 1026.97 148.324C1028.52 148.057 1029.69 147.818 1030.49 147.605L1035.36 170.216C1033.82 170.749 1031.61 171.335 1028.73 171.974C1025.91 172.613 1022.44 172.986 1018.34 173.093C1011.1 173.306 1004.57 172.214 998.767 169.817C992.961 167.367 988.353 163.585 984.944 158.471C981.588 153.357 979.937 146.965 979.99 139.295V19.2843Z" fill="#262625"/>
<path d="M1141.81 7.77858V171.415H1112.88V7.77858H1141.81Z" fill="#262625"/>
<path d="M1225.76 173.812C1213.46 173.812 1202.83 171.255 1193.88 166.142C1184.99 160.975 1178.14 153.677 1173.35 144.249C1168.56 134.767 1166.16 123.608 1166.16 110.77C1166.16 98.1461 1168.56 87.0666 1173.35 77.5318C1178.2 67.9437 1184.96 60.4863 1193.64 55.1596C1202.33 49.7797 1212.53 47.0897 1224.25 47.0897C1231.81 47.0897 1238.95 48.3148 1245.66 50.7651C1252.42 53.1621 1258.39 56.8908 1263.56 61.9512C1268.78 67.0115 1272.88 73.4569 1275.86 81.2871C1278.84 89.0641 1280.34 98.3326 1280.34 109.093V117.961H1179.74V98.4657H1252.61C1252.56 92.926 1251.36 87.9988 1249.02 83.6841C1246.67 79.3162 1243.4 75.8805 1239.19 73.377C1235.03 70.8734 1230.19 69.6216 1224.65 69.6216C1218.73 69.6216 1213.54 71.0598 1209.06 73.9363C1204.59 76.7594 1201.1 80.4881 1198.6 85.1223C1196.15 89.7033 1194.9 94.737 1194.84 100.224V117.242C1194.84 124.38 1196.15 130.506 1198.76 135.62C1201.37 140.68 1205.02 144.568 1209.7 147.285C1214.39 149.948 1219.88 151.28 1226.16 151.28C1230.37 151.28 1234.18 150.694 1237.59 149.522C1241 148.297 1243.95 146.513 1246.46 144.169C1248.96 141.825 1250.85 138.922 1252.13 135.46L1279.14 138.496C1277.43 145.634 1274.18 151.866 1269.39 157.193C1264.65 162.466 1258.58 166.568 1251.17 169.497C1243.77 172.374 1235.3 173.812 1225.76 173.812Z" fill="#262625"/>
<path d="M1401.69 81.1273L1375.32 84.0037C1374.57 81.3404 1373.27 78.8368 1371.4 76.4931C1369.59 74.1493 1367.14 72.2583 1364.05 70.8201C1360.96 69.3819 1357.18 68.6628 1352.71 68.6628C1346.69 68.6628 1341.63 69.9679 1337.52 72.5779C1333.48 75.188 1331.48 78.5705 1331.53 82.7253C1331.48 86.2942 1332.78 89.1973 1335.45 91.4345C1338.16 93.6717 1342.64 95.5094 1348.87 96.9476L1369.8 101.422C1381.42 103.926 1390.05 107.894 1395.69 113.327C1401.39 118.76 1404.27 125.872 1404.32 134.661C1404.27 142.384 1402 149.203 1397.53 155.115C1393.11 160.975 1386.96 165.556 1379.07 168.858C1371.19 172.161 1362.13 173.812 1351.91 173.812C1336.89 173.812 1324.79 170.669 1315.63 164.384C1306.47 158.045 1301.01 149.229 1299.25 137.937L1327.46 135.22C1328.74 140.76 1331.45 144.941 1335.61 147.764C1339.76 150.588 1345.17 151.999 1351.83 151.999C1358.7 151.999 1364.21 150.588 1368.37 147.764C1372.57 144.941 1374.68 141.452 1374.68 137.297C1374.68 133.782 1373.32 130.879 1370.6 128.588C1367.94 126.298 1363.79 124.54 1358.14 123.315L1337.21 118.92C1325.43 116.47 1316.72 112.342 1311.08 106.536C1305.43 100.676 1302.64 93.2722 1302.69 84.3233C1302.64 76.7594 1304.69 70.2076 1308.84 64.6678C1313.05 59.0747 1318.88 54.7601 1326.34 51.7239C1333.85 48.6344 1342.51 47.0897 1352.31 47.0897C1366.69 47.0897 1378.01 50.1525 1386.26 56.2782C1394.57 62.4039 1399.71 70.687 1401.69 81.1273Z" fill="#262625"/>
<path d="M1477.83 32.6277V7.77858H1608.39V32.6277H1557.81V171.415H1528.41V32.6277H1477.83Z" fill="#262625"/>
<path d="M1667.89 173.812C1655.91 173.812 1645.52 171.175 1636.73 165.902C1627.94 160.628 1621.12 153.251 1616.28 143.769C1611.48 134.288 1609.09 123.208 1609.09 110.531C1609.09 97.8532 1611.48 86.747 1616.28 77.2122C1621.12 67.6774 1627.94 60.2733 1636.73 54.9998C1645.52 49.7264 1655.91 47.0897 1667.89 47.0897C1679.88 47.0897 1690.27 49.7264 1699.05 54.9998C1707.84 60.2733 1714.64 67.6774 1719.43 77.2122C1724.28 86.747 1726.7 97.8532 1726.7 110.531C1726.7 123.208 1724.28 134.288 1719.43 143.769C1714.64 153.251 1707.84 160.628 1699.05 165.902C1690.27 171.175 1679.88 173.812 1667.89 173.812ZM1668.05 150.641C1674.55 150.641 1679.99 148.856 1684.35 145.287C1688.72 141.665 1691.97 136.818 1694.1 130.746C1696.28 124.673 1697.38 117.908 1697.38 110.451C1697.38 102.94 1696.28 96.1486 1694.1 90.0762C1691.97 83.9505 1688.72 79.0765 1684.35 75.4544C1679.99 71.8322 1674.55 70.0211 1668.05 70.0211C1661.39 70.0211 1655.86 71.8322 1651.43 75.4544C1647.07 79.0765 1643.79 83.9505 1641.61 90.0762C1639.48 96.1486 1638.41 102.94 1638.41 110.451C1638.41 117.908 1639.48 124.673 1641.61 130.746C1643.79 136.818 1647.07 141.665 1651.43 145.287C1655.86 148.856 1661.39 150.641 1668.05 150.641Z" fill="#262625"/>
<path d="M1829.35 119.799V48.6877H1858.28V171.415H1830.23V149.602H1828.95C1826.18 156.474 1821.63 162.093 1815.29 166.461C1809 170.829 1801.25 173.013 1792.04 173.013C1784 173.013 1776.88 171.229 1770.71 167.66C1764.58 164.037 1759.79 158.791 1756.32 151.919C1752.86 144.995 1751.13 136.632 1751.13 126.83V48.6877H1780.05V122.356C1780.05 130.133 1782.18 136.312 1786.45 140.893C1790.71 145.474 1796.3 147.764 1803.22 147.764C1807.49 147.764 1811.61 146.726 1815.61 144.648C1819.6 142.571 1822.88 139.481 1825.44 135.38C1828.05 131.225 1829.35 126.031 1829.35 119.799Z" fill="#262625"/>
<path d="M1984.9 81.1273L1958.53 84.0037C1957.79 81.3404 1956.48 78.8368 1954.62 76.4931C1952.81 74.1493 1950.35 72.2583 1947.27 70.8201C1944.18 69.3819 1940.39 68.6628 1935.92 68.6628C1929.9 68.6628 1924.84 69.9679 1920.74 72.5779C1916.69 75.188 1914.69 78.5705 1914.75 82.7253C1914.69 86.2942 1916 89.1973 1918.66 91.4345C1921.38 93.6717 1925.85 95.5094 1932.08 96.9476L1953.02 101.422C1964.63 103.926 1973.26 107.894 1978.91 113.327C1984.61 118.76 1987.48 125.872 1987.54 134.661C1987.48 142.384 1985.22 149.203 1980.74 155.115C1976.32 160.975 1970.17 165.556 1962.29 168.858C1954.4 172.161 1945.35 173.812 1935.12 173.812C1920.1 173.812 1908.01 170.669 1898.85 164.384C1889.68 158.045 1884.22 149.229 1882.47 137.937L1910.67 135.22C1911.95 140.76 1914.67 144.941 1918.82 147.764C1922.98 150.588 1928.38 151.999 1935.04 151.999C1941.91 151.999 1947.43 150.588 1951.58 147.764C1955.79 144.941 1957.89 141.452 1957.89 137.297C1957.89 133.782 1956.53 130.879 1953.82 128.588C1951.15 126.298 1947 124.54 1941.35 123.315L1920.42 118.92C1908.65 116.47 1899.94 112.342 1894.29 106.536C1888.64 100.676 1885.85 93.2722 1885.9 84.3233C1885.85 76.7594 1887.9 70.2076 1892.05 64.6678C1896.26 59.0747 1902.09 54.7601 1909.55 51.7239C1917.06 48.6344 1925.72 47.0897 1935.52 47.0897C1949.9 47.0897 1961.22 50.1525 1969.48 56.2782C1977.79 62.4039 1982.93 70.687 1984.9 81.1273Z" fill="#262625"/>
<path d="M2046.66 7.77858L2044.02 123.315H2018.3L2015.74 7.77858H2046.66ZM2031.16 173.173C2026.31 173.173 2022.16 171.468 2018.7 168.059C2015.29 164.65 2013.58 160.495 2013.58 155.595C2013.58 150.801 2015.29 146.699 2018.7 143.29C2022.16 139.881 2026.31 138.176 2031.16 138.176C2035.9 138.176 2040 139.881 2043.47 143.29C2046.98 146.699 2048.74 150.801 2048.74 155.595C2048.74 158.844 2047.91 161.8 2046.26 164.464C2044.66 167.127 2042.53 169.258 2039.87 170.856C2037.26 172.4 2034.36 173.173 2031.16 173.173Z" fill="#262625"/>
<path d="M2367.61 62.9899H2337.73C2336.88 58.0893 2335.31 53.748 2333.02 49.9661C2330.73 46.1309 2327.88 42.8816 2324.47 40.2182C2321.06 37.5549 2317.17 35.5573 2312.8 34.2257C2308.49 32.8407 2303.83 32.1483 2298.82 32.1483C2289.92 32.1483 2282.04 34.3855 2275.17 38.8599C2268.3 43.2811 2262.92 49.7796 2259.03 58.3556C2255.14 66.8784 2253.2 77.2921 2253.2 89.5968C2253.2 102.115 2255.14 112.661 2259.03 121.237C2262.97 129.76 2268.35 136.205 2275.17 140.573C2282.04 144.888 2289.9 147.045 2298.74 147.045C2303.64 147.045 2308.22 146.406 2312.48 145.128C2316.8 143.796 2320.66 141.852 2324.07 139.295C2327.53 136.738 2330.43 133.595 2332.78 129.867C2335.17 126.138 2336.83 121.877 2337.73 117.083L2367.61 117.242C2366.5 125.019 2364.07 132.317 2360.34 139.135C2356.67 145.953 2351.85 151.972 2345.88 157.193C2339.91 162.36 2332.94 166.408 2324.95 169.338C2316.96 172.214 2308.09 173.652 2298.34 173.652C2283.96 173.652 2271.12 170.323 2259.83 163.665C2248.54 157.006 2239.64 147.392 2233.14 134.82C2226.64 122.249 2223.39 107.175 2223.39 89.5968C2223.39 71.9654 2226.67 56.8908 2233.22 44.373C2239.77 31.802 2248.7 22.1873 2259.99 15.5289C2271.28 8.87056 2284.06 5.54137 2298.34 5.54137C2307.45 5.54137 2315.92 6.81978 2323.75 9.37659C2331.58 11.9334 2338.56 15.6887 2344.68 20.6426C2350.81 25.5431 2355.84 31.5623 2359.78 38.7001C2363.78 45.7846 2366.39 53.8812 2367.61 62.9899Z" fill="#262625"/>
<path d="M2422.29 7.77858V171.415H2393.36V7.77858H2422.29Z" fill="#262625"/>
<path d="M2487.22 173.892C2479.45 173.892 2472.44 172.507 2466.21 169.737C2460.03 166.914 2455.13 162.759 2451.51 157.273C2447.94 151.786 2446.16 145.021 2446.16 136.978C2446.16 130.053 2447.43 124.327 2449.99 119.799C2452.55 115.271 2456.04 111.649 2460.46 108.933C2464.88 106.216 2469.86 104.165 2475.4 102.78C2480.99 101.342 2486.77 100.303 2492.74 99.6642C2499.93 98.9185 2505.76 98.2527 2510.24 97.6667C2514.71 97.0275 2517.96 96.0687 2519.98 94.7903C2522.06 93.4586 2523.1 91.4078 2523.1 88.638V88.1586C2523.1 82.1394 2521.32 77.4785 2517.75 74.176C2514.18 70.8734 2509.04 69.2221 2502.33 69.2221C2495.24 69.2221 2489.62 70.7669 2485.47 73.8564C2481.37 76.9458 2478.6 80.5946 2477.16 84.8027L2450.15 80.9675C2452.28 73.5101 2455.8 67.2779 2460.7 62.2708C2465.6 57.2104 2471.59 53.4284 2478.68 50.9249C2485.76 48.3681 2493.59 47.0897 2502.17 47.0897C2508.08 47.0897 2513.96 47.7821 2519.82 49.1671C2525.68 50.552 2531.04 52.8425 2535.88 56.0385C2540.73 59.1813 2544.62 63.4693 2547.55 68.9025C2550.53 74.3358 2552.02 81.1273 2552.02 89.2772V171.415H2524.22V154.556H2523.26C2521.5 157.965 2519.02 161.161 2515.83 164.144C2512.69 167.074 2508.72 169.444 2503.92 171.255C2499.18 173.013 2493.62 173.892 2487.22 173.892ZM2494.74 152.638C2500.54 152.638 2505.58 151.493 2509.84 149.203C2514.1 146.859 2517.37 143.769 2519.66 139.934C2522.01 136.099 2523.18 131.917 2523.18 127.39V112.928C2522.27 113.673 2520.73 114.366 2518.55 115.005C2516.41 115.644 2514.02 116.204 2511.35 116.683C2508.69 117.162 2506.05 117.589 2503.44 117.961C2500.83 118.334 2498.57 118.654 2496.65 118.92C2492.34 119.506 2488.48 120.465 2485.07 121.797C2481.66 123.128 2478.97 124.993 2477 127.39C2475.03 129.733 2474.04 132.77 2474.04 136.498C2474.04 141.825 2475.99 145.847 2479.87 148.563C2483.76 151.28 2488.72 152.638 2494.74 152.638Z" fill="#262625"/>
<path d="M2677.99 81.1273L2651.62 84.0037C2650.87 81.3404 2649.57 78.8368 2647.7 76.4931C2645.89 74.1493 2643.44 72.2583 2640.35 70.8201C2637.26 69.3819 2633.48 68.6628 2629.01 68.6628C2622.99 68.6628 2617.93 69.9679 2613.83 72.5779C2609.78 75.188 2607.78 78.5705 2607.83 82.7253C2607.78 86.2942 2609.09 89.1973 2611.75 91.4345C2614.47 93.6717 2618.94 95.5094 2625.17 96.9476L2646.11 101.422C2657.72 103.926 2666.35 107.894 2671.99 113.327C2677.69 118.76 2680.57 125.872 2680.62 134.661C2680.57 142.384 2678.31 149.203 2673.83 155.115C2669.41 160.975 2663.26 165.556 2655.38 168.858C2647.49 172.161 2638.44 173.812 2628.21 173.812C2613.19 173.812 2601.1 170.669 2591.93 164.384C2582.77 158.045 2577.31 149.229 2575.55 137.937L2603.76 135.22C2605.04 140.76 2607.75 144.941 2611.91 147.764C2616.06 150.588 2621.47 151.999 2628.13 151.999C2635 151.999 2640.51 150.588 2644.67 147.764C2648.88 144.941 2650.98 141.452 2650.98 137.297C2650.98 133.782 2649.62 130.879 2646.91 128.588C2644.24 126.298 2640.09 124.54 2634.44 123.315L2613.51 118.92C2601.74 116.47 2593.03 112.342 2587.38 106.536C2581.73 100.676 2578.94 93.2722 2578.99 84.3233C2578.94 76.7594 2580.99 70.2076 2585.14 64.6678C2589.35 59.0747 2595.18 54.7601 2602.64 51.7239C2610.15 48.6344 2618.81 47.0897 2628.61 47.0897C2642.99 47.0897 2654.31 50.1525 2662.57 56.2782C2670.88 62.4039 2676.02 70.687 2677.99 81.1273Z" fill="#262625"/>
<path d="M2733.28 99.5044V171.415H2704.35V7.77858H2732.64V69.5417H2734.08C2736.95 62.617 2741.4 57.1571 2747.42 53.1621C2753.49 49.1138 2761.22 47.0897 2770.59 47.0897C2779.11 47.0897 2786.55 48.8741 2792.88 52.443C2799.22 56.0119 2804.12 61.2321 2807.59 68.1035C2811.1 74.975 2812.86 83.3645 2812.86 93.2722V171.415H2783.94V97.7466C2783.94 89.4902 2781.8 83.0716 2777.54 78.4906C2773.33 73.8564 2767.42 71.5392 2759.81 71.5392C2754.69 71.5392 2750.11 72.6578 2746.06 74.8951C2742.07 77.079 2738.92 80.2484 2736.63 84.4032C2734.4 88.5581 2733.28 93.5918 2733.28 99.5044Z" fill="#262625"/>
<path d="M2951.45 173.812C2939.46 173.812 2929.07 171.175 2920.28 165.902C2911.5 160.628 2904.68 153.251 2899.83 143.769C2895.04 134.288 2892.64 123.208 2892.64 110.531C2892.64 97.8532 2895.04 86.747 2899.83 77.2122C2904.68 67.6774 2911.5 60.2733 2920.28 54.9998C2929.07 49.7264 2939.46 47.0897 2951.45 47.0897C2963.43 47.0897 2973.82 49.7264 2982.61 54.9998C2991.4 60.2733 2998.19 67.6774 3002.98 77.2122C3007.83 86.747 3010.25 97.8532 3010.25 110.531C3010.25 123.208 3007.83 134.288 3002.98 143.769C2998.19 153.251 2991.4 160.628 2982.61 165.902C2973.82 171.175 2963.43 173.812 2951.45 173.812ZM2951.61 150.641C2958.1 150.641 2963.54 148.856 2967.91 145.287C2972.27 141.665 2975.52 136.818 2977.65 130.746C2979.84 124.673 2980.93 117.908 2980.93 110.451C2980.93 102.94 2979.84 96.1486 2977.65 90.0762C2975.52 83.9505 2972.27 79.0765 2967.91 75.4544C2963.54 71.8322 2958.1 70.0211 2951.61 70.0211C2944.95 70.0211 2939.41 71.8322 2934.99 75.4544C2930.62 79.0765 2927.34 83.9505 2925.16 90.0762C2923.03 96.1486 2921.96 102.94 2921.96 110.451C2921.96 117.908 2923.03 124.673 2925.16 130.746C2927.34 136.818 2930.62 141.665 2934.99 145.287C2939.41 148.856 2944.95 150.641 2951.61 150.641Z" fill="#262625"/>
<path d="M3096.85 48.6877V71.0598H3024.3V48.6877H3096.85ZM3042.43 171.415V37.1021C3042.43 28.8457 3044.14 21.9742 3047.55 16.4877C3051.01 11.0012 3055.64 6.89968 3061.45 4.18306C3067.26 1.46643 3073.7 0.108124 3080.79 0.108124C3085.79 0.108124 3090.24 0.50763 3094.13 1.30664C3098.02 2.10565 3100.89 2.82475 3102.76 3.46396L3097 25.8361C3095.78 25.4632 3094.24 25.0904 3092.37 24.7175C3090.51 24.2914 3088.43 24.0783 3086.14 24.0783C3080.76 24.0783 3076.95 25.3833 3074.71 27.9934C3072.53 30.5502 3071.44 34.2257 3071.44 39.0197V171.415H3042.43Z" fill="#262625"/>
<path d="M3231.8 171.415H3176.35V7.77858H3232.92C3249.16 7.77858 3263.12 11.0545 3274.78 17.6064C3286.5 24.1049 3295.5 33.4533 3301.79 45.6515C3308.08 57.8496 3311.22 72.4448 3311.22 89.437C3311.22 106.482 3308.05 121.131 3301.71 133.382C3295.42 145.634 3286.34 155.035 3274.46 161.587C3262.64 168.139 3248.42 171.415 3231.8 171.415ZM3205.99 145.767H3230.36C3241.76 145.767 3251.27 143.689 3258.88 139.535C3266.5 135.327 3272.23 129.068 3276.06 120.758C3279.9 112.395 3281.81 101.955 3281.81 89.437C3281.81 76.9192 3279.9 66.5321 3276.06 58.2757C3272.23 49.9661 3266.55 43.7605 3259.04 39.6589C3251.59 35.5041 3242.32 33.4267 3231.24 33.4267H3205.99V145.767Z" fill="#262625"/>
<path d="M3392.32 173.812C3380.01 173.812 3369.39 171.255 3360.44 166.142C3351.54 160.975 3344.7 153.677 3339.9 144.249C3335.11 134.767 3332.71 123.608 3332.71 110.77C3332.71 98.1461 3335.11 87.0666 3339.9 77.5318C3344.75 67.9437 3351.51 60.4863 3360.2 55.1596C3368.88 49.7797 3379.08 47.0897 3390.8 47.0897C3398.36 47.0897 3405.5 48.3148 3412.21 50.7651C3418.98 53.1621 3424.94 56.8908 3430.11 61.9512C3435.33 67.0115 3439.43 73.4569 3442.41 81.2871C3445.4 89.0641 3446.89 98.3326 3446.89 109.093V117.961H3346.29V98.4657H3419.16C3419.11 92.926 3417.91 87.9988 3415.57 83.6841C3413.22 79.3162 3409.95 75.8805 3405.74 73.377C3401.59 70.8734 3396.74 69.6216 3391.2 69.6216C3385.29 69.6216 3380.09 71.0598 3375.62 73.9363C3371.14 76.7594 3367.65 80.4881 3365.15 85.1223C3362.7 89.7033 3361.45 94.737 3361.4 100.224V117.242C3361.4 124.38 3362.7 130.506 3365.31 135.62C3367.92 140.68 3371.57 144.568 3376.26 147.285C3380.94 149.948 3386.43 151.28 3392.72 151.28C3396.92 151.28 3400.73 150.694 3404.14 149.522C3407.55 148.297 3410.51 146.513 3413.01 144.169C3415.51 141.825 3417.41 138.922 3418.68 135.46L3445.69 138.496C3443.99 145.634 3440.74 151.866 3435.94 157.193C3431.2 162.466 3425.13 166.568 3417.73 169.497C3410.32 172.374 3401.85 173.812 3392.32 173.812Z" fill="#262625"/>
<path d="M3577.35 48.6877L3533.64 171.415H3501.68L3457.98 48.6877H3488.82L3517.02 139.854H3518.3L3546.58 48.6877H3577.35Z" fill="#262625"/>
<path fill-rule="evenodd" clip-rule="evenodd" d="M2157.81 144.098C2182.16 134.163 2193.85 106.366 2183.92 82.0121C2173.98 57.6579 2146.19 45.9686 2121.83 55.9032C2097.48 65.8379 2085.79 93.6345 2095.72 117.989C2105.66 142.343 2133.46 154.032 2157.81 144.098ZM2131.15 98.8372L2125.95 104.934C2125.81 105.095 2125.92 105.344 2126.13 105.351L2133.9 105.616C2134 105.62 2134.09 105.681 2134.12 105.774L2135.42 108.951C2135.49 109.123 2135.36 109.309 2135.17 109.299L2121.93 108.631C2121.84 108.626 2121.75 108.564 2121.71 108.473L2120.82 106.296C2120.79 106.21 2120.8 106.113 2120.86 106.041L2129.47 95.3567C2129.59 95.2066 2129.83 95.2414 2129.9 95.4199L2131.19 98.5773C2131.23 98.6649 2131.21 98.7652 2131.15 98.8372ZM2153.43 93.7226L2145.45 93.0022C2145.36 92.9937 2145.28 92.9333 2145.24 92.8457L2143.95 89.6883C2143.88 89.5098 2144.02 89.3187 2144.22 89.3413L2157.84 90.9563C2157.93 90.9671 2158.01 91.0268 2158.05 91.112L2158.93 93.2898C2158.97 93.3807 2158.95 93.485 2158.89 93.5571L2149.89 103.296C2149.77 103.432 2149.54 103.391 2149.47 103.219L2148.18 100.042C2148.14 99.9499 2148.16 99.844 2148.23 99.7718L2153.59 94.1495C2153.74 93.9962 2153.64 93.7417 2153.43 93.7226ZM2137.43 90.1584L2140.63 88.8537C2140.79 88.7873 2140.97 88.9029 2140.98 89.0786L2141.75 109.496C2141.75 109.602 2141.69 109.7 2141.59 109.74L2138.39 111.045C2138.23 111.111 2138.05 110.996 2138.04 110.82L2137.28 90.4023C2137.27 90.296 2137.33 90.1986 2137.43 90.1584Z" fill="#A2B87E"/>
<path fill-rule="evenodd" clip-rule="evenodd" d="M3631.97 65.1534C3608.34 76.949 3598.75 105.666 3610.55 129.294C3622.34 152.923 3651.06 162.515 3674.69 150.72C3698.31 138.924 3707.91 110.207 3696.11 86.5788C3684.32 62.9503 3655.6 53.3578 3631.97 65.1534ZM3630.81 113.37C3630.47 113.46 3630.26 113.813 3630.35 114.159L3632.34 121.889C3632.43 122.236 3632.78 122.445 3633.13 122.355L3640.86 120.365C3641.2 120.276 3641.41 119.923 3641.32 119.576L3639.33 111.846C3639.24 111.499 3638.89 111.291 3638.54 111.38L3630.81 113.37ZM3666.54 104.841C3666.45 104.495 3666.66 104.141 3667 104.052L3674.73 102.062C3675.08 101.973 3675.43 102.181 3675.52 102.528L3677.51 110.258C3677.6 110.604 3677.39 110.958 3677.05 111.047L3669.32 113.037C3668.97 113.126 3668.62 112.918 3668.53 112.571L3666.54 104.841ZM3642.11 120.042C3641.77 120.131 3641.56 120.484 3641.65 120.831L3643.64 128.561C3643.73 128.907 3644.08 129.116 3644.43 129.027L3670.38 122.345C3670.72 122.256 3670.93 121.903 3670.84 121.556L3668.85 113.826C3668.76 113.48 3668.41 113.271 3668.06 113.36L3642.11 120.042ZM3634.6 93.4616C3634.51 93.1151 3634.72 92.7618 3635.07 92.6726L3642.8 90.6822C3643.14 90.593 3643.5 90.8016 3643.59 91.1481L3645.58 98.8782C3645.67 99.2247 3645.46 99.5779 3645.11 99.6672L3637.38 101.658C3637.03 101.747 3636.68 101.538 3636.59 101.192L3634.6 93.4616ZM3653.29 87.9814C3652.94 88.0706 3652.73 88.4239 3652.82 88.7704L3654.81 96.5005C3654.9 96.847 3655.25 97.0556 3655.6 96.9663L3663.33 94.976C3663.68 94.8868 3663.89 94.5335 3663.8 94.187L3661.81 86.4569C3661.72 86.1104 3661.36 85.9018 3661.02 85.9911L3653.29 87.9814Z" fill="#262625"/>
</svg>
