<svg width="54" height="27" viewBox="0 0 54 27" fill="none" xmlns="http://www.w3.org/2000/svg">
<rect width="54" height="27" rx="13.5" fill="#262625"/>
<rect x="27" y="1.70099" width="23" height="23" rx="11.5" fill="#F3F3F1"/>
<path d="M41.1738 20.6812C40.6563 20.8187 40.1668 20.899 39.6777 20.9252C38.8421 20.9729 38.0373 20.8713 37.2896 20.6278C36.021 20.2133 34.9566 19.4311 34.1249 18.2984C33.6056 17.5914 33.2132 16.7862 32.9597 15.9068C32.7068 15.0293 32.6209 14.1406 32.7072 13.2684C32.7965 12.3602 33.0676 11.4991 33.511 10.7106C33.981 9.8755 34.6188 9.15157 35.4099 8.55301C36.0971 8.03188 36.8642 7.61825 37.6914 7.32156C37.9063 7.24366 38.1237 7.17548 38.3417 7.11753C38.7587 7.00668 39.1846 6.93085 39.608 6.89304L39.6792 6.88657C40.0072 6.85545 40.3456 6.8257 40.7471 6.87679C40.7471 6.87679 40.7803 6.8804 41.316 6.9581C41.3308 6.96041 41.3432 6.96956 41.3523 6.98167C41.7368 7.65186 42.0865 8.35209 42.392 9.06196C42.7622 9.92284 43.0785 10.8188 43.3303 11.7236C43.3367 11.7489 43.3251 11.7748 43.3009 11.7833C43.3009 11.7833 43.0762 11.8783 43.0724 11.8794C43.061 11.8824 43.0468 11.882 43.0377 11.8782C42.5749 11.6731 42.0938 11.5311 41.6076 11.4569C41.3273 11.413 40.8601 11.342 40.2661 11.4252C40.1058 11.4471 39.946 11.4792 39.7887 11.521C39.7166 11.5401 39.6465 11.5588 39.574 11.5843C39.1236 11.731 38.7343 11.903 38.3837 12.1083C37.8381 12.4298 37.4689 12.7771 37.2255 13.2052C36.9535 13.6803 36.8846 14.1824 37.0178 14.6993C37.106 15.0392 37.2432 15.3246 37.4365 15.5764C37.714 15.9366 38.0773 16.1722 38.5154 16.28C38.9773 16.3939 39.4556 16.381 39.9768 16.2424C40.0565 16.2213 40.1337 16.1987 40.2118 16.1717C40.7493 15.9935 41.2401 15.7509 41.6701 15.4518C41.8424 15.3333 42.0064 15.1983 42.1594 15.0518C42.5191 14.707 42.7241 14.3743 42.9215 14.0519C43.1362 13.702 43.327 13.3295 43.4858 12.9426C43.4909 12.9309 43.5008 12.922 43.5117 12.917L43.7317 12.8191C43.7525 12.8136 43.7754 12.8241 43.7865 12.844C44.1453 13.5085 44.4759 14.1972 44.7718 14.8931C45.1343 15.7477 45.4524 16.6348 45.7155 17.5283C45.7185 17.54 45.719 17.5502 45.7139 17.562C45.7065 17.5806 45.6968 17.606 45.6842 17.6363C45.4291 18.2419 44.9726 18.5958 44.443 19.0044C44.3685 19.0616 44.2926 19.1212 44.2166 19.1809C43.515 19.7328 42.7205 20.1662 41.8582 20.4681C41.6276 20.5481 41.3989 20.6193 41.1771 20.6782L41.1738 20.6812Z" fill="#262625"/>
<path d="M38.3507 7.16912C38.764 7.05927 39.1842 6.98495 39.6076 6.94715C39.9536 6.91538 40.3119 6.87619 40.7367 6.93147C40.7367 6.93147 40.7699 6.93508 41.3051 7.01083C41.6529 7.61604 42.0067 8.30892 42.3414 9.08579C42.7543 10.0433 43.0545 10.9394 43.2777 11.7396C43.203 11.772 43.1277 11.8024 43.053 11.8347C42.4805 11.5799 41.9758 11.4649 41.61 11.4106C41.2965 11.3631 40.8402 11.2954 40.2543 11.3785C40.092 11.4009 39.9322 11.433 39.7711 11.4758C39.6991 11.4949 39.6252 11.5146 39.5546 11.5396C39.1359 11.6758 38.7337 11.845 38.3534 12.0686C37.8801 12.3481 37.4577 12.6929 37.1773 13.1827C36.9039 13.6603 36.8237 14.1737 36.9652 14.7154C37.0505 15.0436 37.1878 15.3456 37.3927 15.6109C37.6793 15.9832 38.0498 16.2231 38.4983 16.3323C39.0012 16.4561 39.4968 16.424 39.984 16.2945C40.0636 16.2733 40.1427 16.2502 40.2227 16.2227C40.7456 16.0505 41.2379 15.8138 41.6938 15.4974C41.8708 15.3735 42.0348 15.2386 42.1878 15.092C42.5456 14.7477 42.7455 14.4267 42.9574 14.0818C43.1268 13.8084 43.3313 13.4342 43.5259 12.9652C43.5969 12.9338 43.6679 12.9025 43.7388 12.8712C44.07 13.4829 44.4029 14.1647 44.7231 14.9164C45.1205 15.8531 45.4263 16.7394 45.6653 17.5458C45.6593 17.562 45.6496 17.5874 45.6351 17.6182C45.3499 18.2962 44.8045 18.6509 44.1825 19.1422C43.471 19.703 42.6878 20.1251 41.8383 20.4215C41.6134 20.4999 41.3884 20.5701 41.1609 20.6306C40.6738 20.7601 40.1796 20.8458 39.673 20.8746C38.8672 20.9206 38.0735 20.8305 37.3015 20.5789C36.011 20.1579 34.9722 19.373 34.1617 18.2679C33.6357 17.5502 33.2538 16.7547 33.0047 15.8928C32.7572 15.0367 32.6653 14.1641 32.7533 13.2749C32.8417 12.371 33.1083 11.5236 33.5502 10.7375C34.0282 9.88581 34.6642 9.17895 35.435 8.59617C36.1312 8.07058 36.8879 7.66386 37.7023 7.37263C37.9153 7.29524 38.1313 7.22951 38.3493 7.17157M38.3247 7.07431C38.1067 7.13225 37.8874 7.20093 37.6705 7.27934C36.8396 7.57704 36.0692 7.99363 35.3767 8.51821C34.5805 9.12022 33.938 9.84956 33.4652 10.6895C33.0176 11.4854 32.7455 12.3509 32.6564 13.2674C32.5692 14.144 32.656 15.0366 32.911 15.9218C33.1659 16.8071 33.5612 17.6156 34.0839 18.328C34.9218 19.4694 35.9939 20.2579 37.2734 20.6757C38.0278 20.9215 38.8387 21.0237 39.6806 20.9764C40.1734 20.9492 40.6667 20.8679 41.188 20.7293C41.4098 20.6703 41.6405 20.5986 41.873 20.5182C42.7409 20.2148 43.5392 19.7804 44.2455 19.223C44.3234 19.1629 44.3974 19.1038 44.4719 19.0466C45.0062 18.6325 45.4684 18.2771 45.7281 17.6579C45.7407 17.6275 45.7518 17.5997 45.7578 17.5835C45.7667 17.5625 45.7669 17.5396 45.7615 17.5182C45.4979 16.6227 45.1798 15.7356 44.8163 14.8771C44.5199 14.1793 44.1889 13.4887 43.8282 12.8246C43.8059 12.7848 43.7601 12.7638 43.7184 12.7749C43.7127 12.7764 43.7089 12.7774 43.7033 12.7789L43.4904 12.8729C43.4667 12.8833 43.4493 12.9025 43.4391 12.926C43.2817 13.3104 43.0923 13.6805 42.879 14.0279C42.6745 14.3625 42.4794 14.6781 42.1244 15.0175C41.9747 15.1611 41.8126 15.2956 41.6422 15.4135C41.216 15.7116 40.7285 15.9513 40.1962 16.126C40.1175 16.151 40.0389 16.1761 39.9631 16.1962C39.4494 16.3328 38.9792 16.3457 38.5235 16.2322C38.0964 16.1277 37.7422 15.8959 37.4714 15.5463C37.2819 15.3019 37.1476 15.0199 37.0613 14.6878C36.9297 14.185 36.9978 13.6955 37.2623 13.2307C37.502 12.8119 37.8641 12.4686 38.4032 12.153C38.7518 11.9482 39.1379 11.7791 39.5845 11.6334C39.6555 11.6103 39.7252 11.5898 39.7953 11.5711C39.9507 11.5298 40.1105 11.4977 40.2666 11.4749C40.8506 11.3923 41.3159 11.4638 41.5938 11.5062C42.0781 11.581 42.5545 11.7201 43.0111 11.9247C43.0316 11.9338 43.0544 11.936 43.0753 11.9305C43.0791 11.9295 43.0847 11.928 43.0885 11.927L43.3133 11.8319C43.3592 11.8135 43.3844 11.7611 43.3696 11.7111C43.1173 10.8043 42.8005 9.90642 42.4299 9.0436C42.1238 8.33178 41.7718 7.63011 41.3868 6.95797C41.3718 6.93081 41.345 6.91301 41.3155 6.90839C40.7847 6.83357 40.7466 6.82708 40.7466 6.82708C40.3409 6.77506 39.9986 6.80582 39.6683 6.8355L39.5952 6.84247C39.1699 6.88077 38.7421 6.95712 38.3213 7.06898L38.3247 7.07431Z" fill="#262625"/>
<path d="M33.8042 8.43558L30.4994 8.43097C30.4796 8.43095 30.4619 8.4447 30.4561 8.46415C29.6111 11.2939 29.7968 12.7304 32.2437 14.7575C32.2539 14.766 32.268 14.7697 32.2809 14.7672C35.1942 14.2141 36.0421 13.0444 36.7799 10.1572C36.7851 10.1368 36.7763 10.1149 36.7582 10.1046L33.8261 8.44138C33.8194 8.43759 33.8119 8.43559 33.8042 8.43558Z" fill="#F588B9"/>
<path d="M34.7404 10.0373L33.1247 9.75481L31.9872 11.5198L32.8062 11.663L31.968 13.1436L34.2507 11.3264L33.2242 11.1469L34.7404 10.0373Z" fill="#262625"/>
</svg>
