<svg width="54" height="27" viewBox="0 0 54 27" fill="none" xmlns="http://www.w3.org/2000/svg">
<rect width="54" height="27" rx="13.5" fill="#F3F3F1"/>
<rect x="27" y="1.70105" width="23" height="23" rx="11.5" fill="#262625"/>
<path d="M41.1738 20.6812C40.6563 20.8188 40.1668 20.8991 39.6777 20.9253C38.8421 20.973 38.0373 20.8713 37.2896 20.6278C36.021 20.2134 34.9566 19.4312 34.1249 18.2985C33.6056 17.5914 33.2132 16.7863 32.9597 15.9069C32.7068 15.0294 32.6209 14.1407 32.7072 13.2685C32.7965 12.3602 33.0676 11.4991 33.511 10.7106C33.981 9.87556 34.6188 9.15163 35.4099 8.55308C36.0971 8.03195 36.8642 7.61831 37.6914 7.32162C37.9063 7.24372 38.1237 7.17554 38.3417 7.1176C38.7587 7.00674 39.1846 6.93091 39.608 6.8931L39.6792 6.88664C40.0072 6.85551 40.3456 6.82576 40.7471 6.87685C40.7471 6.87685 40.7804 6.88046 41.316 6.95816C41.3308 6.96047 41.3432 6.96962 41.3523 6.98173C41.7368 7.65192 42.0865 8.35215 42.392 9.06202C42.7622 9.9229 43.0785 10.8189 43.3303 11.7237C43.3367 11.7489 43.3251 11.7749 43.3009 11.7834C43.3009 11.7834 43.0762 11.8784 43.0724 11.8794C43.061 11.8824 43.0468 11.8821 43.0377 11.8783C42.5749 11.6732 42.0938 11.5312 41.6076 11.457C41.3273 11.4131 40.8601 11.3421 40.2661 11.4253C40.1058 11.4471 39.946 11.4792 39.7887 11.521C39.7166 11.5402 39.6465 11.5588 39.574 11.5843C39.1236 11.731 38.7343 11.9031 38.3837 12.1084C37.8381 12.4299 37.4689 12.7772 37.2255 13.2053C36.9535 13.6804 36.8846 14.1825 37.0178 14.6994C37.106 15.0393 37.2432 15.3247 37.4365 15.5764C37.714 15.9366 38.0773 16.1723 38.5154 16.2801C38.9773 16.394 39.4556 16.381 39.9768 16.2425C40.0565 16.2213 40.1337 16.1987 40.2118 16.1717C40.7493 15.9935 41.2401 15.7509 41.6701 15.4518C41.8424 15.3334 42.0064 15.1984 42.1594 15.0518C42.5191 14.7071 42.7241 14.3744 42.9215 14.052C43.1362 13.7021 43.327 13.3296 43.4858 12.9427C43.4909 12.9309 43.5008 12.9221 43.5117 12.9171L43.7317 12.8192C43.7525 12.8136 43.7754 12.8242 43.7865 12.844C44.1453 13.5086 44.4759 14.1973 44.7718 14.8931C45.1343 15.7477 45.4524 16.6349 45.7155 17.5284C45.7185 17.5401 45.719 17.5503 45.7139 17.562C45.7065 17.5806 45.6968 17.606 45.6842 17.6364C45.4291 18.242 44.9726 18.5959 44.443 19.0045C44.3685 19.0617 44.2926 19.1213 44.2166 19.1809C43.515 19.7329 42.7205 20.1663 41.8582 20.4681C41.6276 20.5481 41.3989 20.6193 41.1771 20.6783L41.1738 20.6812Z" fill="#F3F3F1"/>
<path d="M38.3507 7.16918C38.764 7.05933 39.1842 6.98501 39.6076 6.94721C39.9536 6.91544 40.3119 6.87625 40.7367 6.93153C40.7367 6.93153 40.7699 6.93514 41.3051 7.01089C41.6529 7.6161 42.0067 8.30898 42.3414 9.08585C42.7543 10.0433 43.0545 10.9394 43.2777 11.7397C43.203 11.772 43.1277 11.8024 43.053 11.8347C42.4805 11.58 41.9758 11.465 41.61 11.4106C41.2965 11.3632 40.8402 11.2955 40.2543 11.3786C40.092 11.4009 39.9322 11.433 39.7711 11.4759C39.6991 11.495 39.6252 11.5147 39.5546 11.5396C39.1359 11.6759 38.7337 11.8451 38.3534 12.0687C37.8801 12.3481 37.4577 12.693 37.1773 13.1828C36.9039 13.6604 36.8237 14.1738 36.9652 14.7155C37.0505 15.0437 37.1878 15.3456 37.3927 15.6109C37.6793 15.9832 38.0498 16.2232 38.4983 16.3324C39.0012 16.4562 39.4968 16.4241 39.984 16.2946C40.0636 16.2734 40.1427 16.2503 40.2227 16.2228C40.7456 16.0506 41.2379 15.8138 41.6938 15.4975C41.8708 15.3736 42.0348 15.2386 42.1878 15.092C42.5456 14.7478 42.7455 14.4268 42.9574 14.0819C43.1268 13.8084 43.3313 13.4343 43.5259 12.9652C43.5969 12.9339 43.6679 12.9026 43.7388 12.8713C44.07 13.4829 44.4029 14.1648 44.7231 14.9165C45.1205 15.8531 45.4263 16.7394 45.6653 17.5459C45.6593 17.562 45.6496 17.5874 45.6351 17.6183C45.3499 18.2963 44.8045 18.6509 44.1825 19.1423C43.471 19.7031 42.6878 20.1251 41.8383 20.4215C41.6134 20.5 41.3884 20.5702 41.1609 20.6307C40.6738 20.7602 40.1796 20.8458 39.673 20.8746C38.8672 20.9206 38.0735 20.8306 37.3015 20.579C36.011 20.1579 34.9722 19.373 34.1617 18.2679C33.6357 17.5502 33.2538 16.7547 33.0047 15.8928C32.7572 15.0367 32.6653 14.1642 32.7533 13.2749C32.8417 12.3711 33.1083 11.5236 33.5502 10.7376C34.0282 9.88587 34.6642 9.17901 35.435 8.59623C36.1312 8.07064 36.8879 7.66392 37.7023 7.3727C37.9153 7.2953 38.1313 7.22957 38.3493 7.17163M38.3247 7.07437C38.1067 7.13231 37.8874 7.20099 37.6705 7.2794C36.8396 7.5771 36.0692 7.99369 35.3768 8.51827C34.5805 9.12028 33.938 9.84962 33.4652 10.6896C33.0176 11.4854 32.7455 12.3509 32.6564 13.2675C32.5692 14.144 32.656 15.0366 32.911 15.9219C33.1659 16.8072 33.5612 17.6157 34.0839 18.3281C34.9218 19.4695 35.9939 20.258 37.2734 20.6757C38.0278 20.9216 38.8387 21.0237 39.6806 20.9764C40.1734 20.9492 40.6667 20.8679 41.188 20.7294C41.4098 20.6704 41.6405 20.5987 41.873 20.5182C42.7409 20.2148 43.5392 19.7805 44.2455 19.2231C44.3234 19.163 44.3974 19.1038 44.4719 19.0466C45.0062 18.6326 45.4684 18.2772 45.7281 17.6579C45.7407 17.6276 45.7518 17.5997 45.7578 17.5836C45.7667 17.5625 45.7669 17.5396 45.7615 17.5182C45.4979 16.6228 45.1798 15.7356 44.8163 14.8771C44.5199 14.1794 44.1889 13.4887 43.8282 12.8247C43.8059 12.7849 43.7601 12.7638 43.7184 12.7749C43.7127 12.7764 43.7089 12.7775 43.7033 12.779L43.4904 12.8729C43.4667 12.8834 43.4493 12.9025 43.4391 12.926C43.2817 13.3105 43.0923 13.6806 42.879 14.028C42.6745 14.3626 42.4794 14.6782 42.1244 15.0175C41.9747 15.1612 41.8126 15.2956 41.6422 15.4136C41.216 15.7117 40.7285 15.9513 40.1962 16.126C40.1175 16.1511 40.0389 16.1761 39.9631 16.1963C39.4494 16.3328 38.9792 16.3457 38.5235 16.2322C38.0964 16.1277 37.7422 15.8959 37.4714 15.5464C37.2819 15.3019 37.1476 15.0199 37.0613 14.6878C36.9297 14.185 36.9978 13.6956 37.2623 13.2308C37.502 12.812 37.8641 12.4687 38.4032 12.153C38.7518 11.9482 39.1379 11.7792 39.5845 11.6334C39.6555 11.6104 39.7252 11.5898 39.7953 11.5712C39.9507 11.5299 40.1105 11.4978 40.2666 11.475C40.8506 11.3924 41.3159 11.4639 41.5938 11.5063C42.0781 11.581 42.5545 11.7202 43.0111 11.9248C43.0316 11.9339 43.0544 11.9361 43.0753 11.9306C43.079 11.9296 43.0847 11.928 43.0885 11.927L43.3133 11.832C43.3592 11.8136 43.3844 11.7612 43.3696 11.7111C43.1173 10.8044 42.8005 9.90648 42.4299 9.04366C42.1238 8.33184 41.7718 7.63017 41.3868 6.95803C41.3718 6.93087 41.345 6.91307 41.3155 6.90845C40.7847 6.83364 40.7466 6.82714 40.7466 6.82714C40.3409 6.77512 39.9986 6.80588 39.6683 6.83556L39.5952 6.84253C39.1699 6.88084 38.7421 6.95718 38.3213 7.06904L38.3247 7.07437Z" fill="#F3F3F1"/>
<path d="M33.8042 8.43565L30.4994 8.43103C30.4796 8.43101 30.4619 8.44476 30.4561 8.46421C29.6111 11.294 29.7968 12.7305 32.2437 14.7576C32.2539 14.7661 32.268 14.7697 32.2809 14.7673C35.1942 14.2142 36.0421 13.0445 36.7799 10.1573C36.7851 10.1369 36.7763 10.1149 36.7582 10.1047L33.8261 8.44144C33.8194 8.43765 33.8119 8.43566 33.8042 8.43565Z" fill="#F588B9"/>
<path d="M34.7404 10.0374L33.1247 9.75487L31.9872 11.5198L32.8062 11.663L31.968 13.1436L34.2507 11.3264L33.2242 11.147L34.7404 10.0374Z" fill="#F3F3F1"/>
</svg>
